<svg xmlns="http://www.w3.org/2000/svg" width="528" height="360" fill="none" viewBox="0 0 528 360"><mask id="b" width="528" height="360" x="0" y="0" maskUnits="userSpaceOnUse" style="mask-type:alpha"><rect width="528" height="358.286" y=".857" fill="url(#a)" rx="16"/><rect width="528" height="358.286" y=".857" stroke="#19182B" rx="16"/></mask><g mask="url(#b)"><rect width="528" height="358.286" y=".857" fill="url(#c)" rx="16"/><rect width="528" height="358.286" y=".857" stroke="#19182B" rx="16"/><g filter="url(#d)"><path fill="#242742" d="M-22.629 136.348c0-10.879 8.85-19.697 19.768-19.697h289.669c10.918 0 19.768 8.818 19.768 19.697v179.544c0 10.878-8.85 19.697-19.768 19.697H-2.862c-10.917 0-19.767-8.819-19.767-19.697V136.348Z"/></g><g filter="url(#e)"><path fill="url(#f)" d="M-10.465 136.348c0-4.603 3.745-8.334 8.363-8.334h288.149c4.619 0 8.364 3.731 8.364 8.334v179.544c0 4.603-3.745 8.334-8.364 8.334H-2.102c-4.618 0-8.363-3.731-8.363-8.334V136.348Z"/></g><mask id="h" width="306" height="197" x="-11" y="128" maskUnits="userSpaceOnUse" style="mask-type:alpha"><path fill="url(#g)" d="M-10.465 136.348c0-4.603 3.745-8.334 8.363-8.334h288.149c4.619 0 8.364 3.731 8.364 8.334v179.544c0 4.603-3.745 8.334-8.364 8.334H-2.102c-4.618 0-8.363-3.731-8.363-8.334V136.348Z"/></mask><g mask="url(#h)"><ellipse cx="286.048" cy="312.862" fill="url(#i)" rx="120.125" ry="119.696"/><circle cx="119.911" cy="119.911" r="119.911" fill="url(#j)" transform="scale(-1.00179 -.99821) rotate(45 281.296 -248.19)"/></g><g filter="url(#k)"><path fill="url(#l)" d="M221.423 52.257c0-4.602 3.744-8.333 8.363-8.333h312.479c4.618 0 8.363 3.73 8.363 8.333v173.484c0 4.602-3.745 8.333-8.363 8.333H229.786c-4.619 0-8.363-3.731-8.363-8.333V52.257Z"/></g><path fill="url(#m)" d="M221.423 52.257c0-4.602 3.744-8.333 8.363-8.333h64.625v190.15h-64.625c-4.619 0-8.363-3.731-8.363-8.333V52.257Z"/><path fill="#BABBDB" d="M232.068 82.181a2.656 2.656 0 0 1 2.661-2.651h46.378a2.657 2.657 0 0 1 2.661 2.651 2.657 2.657 0 0 1-2.661 2.652h-46.378a2.656 2.656 0 0 1-2.661-2.652ZM232.068 97.333a2.656 2.656 0 0 1 2.661-2.652h41.056a2.657 2.657 0 0 1 2.661 2.652 2.657 2.657 0 0 1-2.661 2.651h-41.056a2.656 2.656 0 0 1-2.661-2.651ZM232.068 112.484a2.656 2.656 0 0 1 2.661-2.651h46.378a2.656 2.656 0 0 1 2.661 2.651 2.657 2.657 0 0 1-2.661 2.652h-46.378a2.657 2.657 0 0 1-2.661-2.652ZM232.068 127.636a2.656 2.656 0 0 1 2.661-2.652h29.651a2.656 2.656 0 0 1 2.661 2.652 2.656 2.656 0 0 1-2.661 2.651h-29.651a2.656 2.656 0 0 1-2.661-2.651Z"/><path fill="#242742" d="M221.423 52.257c0-4.602 3.744-8.333 8.363-8.333h312.479c4.618 0 8.363 3.73 8.363 8.333v15.152H221.423V52.257Z"/><ellipse cx="238.53" cy="55.666" fill="#FF6155" rx="4.942" ry="4.924"/><ellipse cx="255.257" cy="55.666" fill="#FF9255" rx="4.942" ry="4.924"/><ellipse cx="271.982" cy="55.666" fill="#6BD5A8" rx="4.942" ry="4.924"/><path fill="#fff" d="M310.377 30.288a3.036 3.036 0 0 1 3.041-3.03h68.426a3.036 3.036 0 0 1 3.042 3.03v92.423a3.037 3.037 0 0 1-3.042 3.031h-68.426a3.036 3.036 0 0 1-3.041-3.031V30.288Z"/><mask id="n" width="75" height="99" x="310" y="27" maskUnits="userSpaceOnUse" style="mask-type:alpha"><path fill="#fff" d="M310.377 30.288a3.036 3.036 0 0 1 3.041-3.03h68.426a3.036 3.036 0 0 1 3.042 3.03v92.423a3.037 3.037 0 0 1-3.042 3.031h-68.426a3.036 3.036 0 0 1-3.041-3.031V30.288Z"/></mask><g mask="url(#n)"><path fill="url(#o)" fill-rule="evenodd" d="M392.58 49.134c.891.888.891 2.327.001 3.215l-19.216 19.159c-3.306 3.296-8.668 3.296-11.974 0a3.912 3.912 0 0 0-5.52 0l-13.253 13.214a6.607 6.607 0 0 1-9.323 0 2.033 2.033 0 0 0-2.869 0l-24.518 24.444a2.285 2.285 0 0 1-3.225.001 2.266 2.266 0 0 1-.001-3.214l24.517-24.445a6.607 6.607 0 0 1 9.323 0c.792.79 2.077.79 2.87 0l13.252-13.213c3.306-3.296 8.668-3.296 11.974 0a3.912 3.912 0 0 0 5.52 0l19.216-19.16a2.287 2.287 0 0 1 3.226 0Z" clip-rule="evenodd"/></g><path fill="#fff" d="M347.63 140.893a3.036 3.036 0 0 1 3.042-3.03h91.234a3.035 3.035 0 0 1 3.041 3.03v109.09a3.036 3.036 0 0 1-3.041 3.031h-91.234a3.037 3.037 0 0 1-3.042-3.031v-109.09Z"/><path fill="url(#p)" fill-rule="evenodd" d="M396.669 219.68c13.647 0 24.71-11.023 24.71-24.621 0-13.597-11.063-24.621-24.71-24.621-13.646 0-24.709 11.024-24.709 24.621 0 13.598 11.063 24.621 24.709 24.621Zm0 10.607c19.525 0 35.354-15.772 35.354-35.228 0-19.455-15.829-35.227-35.354-35.227s-35.353 15.772-35.353 35.227c0 19.456 15.828 35.228 35.353 35.228Z" clip-rule="evenodd"/><path fill="#242742" d="M383.828 191.437c0 1.721.447 3.082 1.342 4.084.895.994 2.114 1.492 3.659 1.492 1.433 0 2.554-.509 3.362-1.527.815-1.018 1.223-2.289 1.223-3.812h-.891c0 .868-.241 1.559-.724 2.072-.483.512-1.085.769-1.806.769-.768 0-1.338-.257-1.711-.769-.372-.521-.558-1.283-.558-2.285 0-1.144.186-1.965.558-2.462.38-.505.943-.758 1.687-.758.8 0 1.422.328 1.865.983.444.655.666 1.827.666 3.515l.106.474c0 2.501-.55 4.277-1.651 5.327-1.101 1.049-2.657 1.57-4.668 1.562h-.535v3.007h.618c3.231-.032 5.698-.904 7.401-2.616 1.71-1.721 2.566-4.037 2.566-6.949v-.615c0-2.62-.59-4.514-1.77-5.682-1.18-1.176-2.705-1.764-4.574-1.764-1.877 0-3.374.541-4.49 1.622-1.117 1.081-1.675 2.525-1.675 4.332ZM404.593 203.014h3.671v-17.235h-3.434l-7.686 11.032v2.605h13.032v-2.948h-3.754l-.617.059h-4.942l3.67-5.729h.119v7.268l-.059.414v4.534Z"/></g><defs><linearGradient id="a" x1="528" x2="381.055" y1=".857" y2="476.793" gradientUnits="userSpaceOnUse"><stop stop-color="#FF6A3A"/><stop offset="1" stop-color="#FF527B"/></linearGradient><linearGradient id="c" x1="0" x2="528" y1="180" y2="180" gradientUnits="userSpaceOnUse"><stop stop-color="#FF6A3A"/><stop offset="1" stop-color="#FF527B"/></linearGradient><linearGradient id="f" x1="-10.465" x2="294.411" y1="226.12" y2="226.12" gradientUnits="userSpaceOnUse"><stop stop-color="#FF3E83"/><stop offset="1" stop-color="#FF9F2E"/></linearGradient><linearGradient id="g" x1="57.581" x2="291.043" y1="124.984" y2="325.051" gradientUnits="userSpaceOnUse"><stop stop-color="#FF3E83"/><stop offset="1" stop-color="#FF9F2E"/></linearGradient><linearGradient id="i" x1="165.922" x2="406.173" y1="312.862" y2="312.862" gradientUnits="userSpaceOnUse"><stop stop-color="#FFB433"/><stop offset="1" stop-color="#FF5B64" stop-opacity="0"/></linearGradient><linearGradient id="j" x1="0" x2="239.822" y1="119.911" y2="119.911" gradientUnits="userSpaceOnUse"><stop stop-color="#FFB433"/><stop offset="1" stop-color="#FF5B64" stop-opacity="0"/></linearGradient><linearGradient id="l" x1="221.423" x2="550.628" y1="138.999" y2="138.999" gradientUnits="userSpaceOnUse"><stop stop-color="#F8F8F8"/><stop offset="1" stop-color="#EEE"/></linearGradient><linearGradient id="m" x1="221.423" x2="294.411" y1="138.999" y2="138.999" gradientUnits="userSpaceOnUse"><stop stop-color="#CACBE8"/><stop offset="1" stop-color="#EEE"/></linearGradient><linearGradient id="o" x1="302.014" x2="393.249" y1="79.151" y2="79.151" gradientUnits="userSpaceOnUse"><stop stop-color="#FF9649"/><stop offset="1" stop-color="#FF5E5E"/></linearGradient><linearGradient id="p" x1="361.316" x2="432.023" y1="195.059" y2="195.059" gradientUnits="userSpaceOnUse"><stop stop-color="#FF6A3D"/><stop offset="1" stop-color="#FF5B66"/></linearGradient><filter id="d" width="393.205" height="282.938" x="-54.629" y="108.651" color-interpolation-filters="sRGB" filterUnits="userSpaceOnUse"><feFlood flood-opacity="0" result="BackgroundImageFix"/><feColorMatrix in="SourceAlpha" result="hardAlpha" values="0 0 0 0 0 0 0 0 0 0 0 0 0 0 0 0 0 0 127 0"/><feOffset dy="24"/><feGaussianBlur stdDeviation="16"/><feComposite in2="hardAlpha" operator="out"/><feColorMatrix values="0 0 0 0 0 0 0 0 0 0 0 0 0 0 0 0 0 0 0.1 0"/><feBlend in2="BackgroundImageFix" result="effect1_dropShadow_2073_1759"/><feBlend in="SourceGraphic" in2="effect1_dropShadow_2073_1759" result="shape"/></filter><filter id="e" width="368.875" height="260.211" x="-42.465" y="120.014" color-interpolation-filters="sRGB" filterUnits="userSpaceOnUse"><feFlood flood-opacity="0" result="BackgroundImageFix"/><feColorMatrix in="SourceAlpha" result="hardAlpha" values="0 0 0 0 0 0 0 0 0 0 0 0 0 0 0 0 0 0 127 0"/><feOffset dy="24"/><feGaussianBlur stdDeviation="16"/><feComposite in2="hardAlpha" operator="out"/><feColorMatrix values="0 0 0 0 0 0 0 0 0 0 0 0 0 0 0 0 0 0 0.1 0"/><feBlend in2="BackgroundImageFix" result="effect1_dropShadow_2073_1759"/><feBlend in="SourceGraphic" in2="effect1_dropShadow_2073_1759" result="shape"/></filter><filter id="k" width="393.205" height="254.151" x="189.423" y="35.924" color-interpolation-filters="sRGB" filterUnits="userSpaceOnUse"><feFlood flood-opacity="0" result="BackgroundImageFix"/><feColorMatrix in="SourceAlpha" result="hardAlpha" values="0 0 0 0 0 0 0 0 0 0 0 0 0 0 0 0 0 0 127 0"/><feOffset dy="24"/><feGaussianBlur stdDeviation="16"/><feComposite in2="hardAlpha" operator="out"/><feColorMatrix values="0 0 0 0 0 0 0 0 0 0 0 0 0 0 0 0 0 0 0.1 0"/><feBlend in2="BackgroundImageFix" result="effect1_dropShadow_2073_1759"/><feBlend in="SourceGraphic" in2="effect1_dropShadow_2073_1759" result="shape"/></filter></defs></svg>